 http://desibbrg.org/images/66952052392581364616.gif 
http://desibbrg.org/images/01912839499678979211.jpg 
http://desibbrg.org/images/28611945389648491947.png 
http://desibbrg.org/images/60486577120168039723.png 
http://desibbrg.org/images/72563957783986587215.png 
http://desibbrg.org/images/43379903195877504760.png

Cast - 
Directed by - Sachin
Starring - 
Sachin,
Ashok Saraf,
Laxmikant Berde,
Siddharth Ray,
Supriya,
Ashwini Bhave,
Priya Arun,
Nivedita Joshi,
Nayantara,
Viju Khote,
Sudhir Joshi

Music by - Anil Mohile, Arun Paudwal


Media Info - 
Video
ID                             : 0
Format                         : MPEG-4 Visual
Format settings, Matrix        : Default (H.263)
Codec ID                       : XVID
Codec ID/Hint                  : XviD
Duration                       : 2h 16mn
Bit rate                       : 1 229 Kbps
Width                          : 640 pixels
Height                         : 480 pixels
Display aspect ratio           : 4:3
Frame rate                     : 29.970 fps
Color space                    : YUV
Chroma subsampling             : 4:2:0
Bit depth                      : 8 bits
Scan type                      : Progressive
Compression mode               : Lossy
Bits/(Pixel*Frame)             : 0.134
Stream size                    : 1.17 GiB (86%)

Audio
Format                         : AC-3
Format/Info                    : Audio Coding 3
Mode extension                 : CM (complete main)
Format settings, Endianness    : Big
Codec ID                       : 2000
Duration                       : 2h 16mn
Bit rate mode                  : Constant
Bit rate                       : 192 Kbps
Channel(s)                     : 6 channels
Channel positions              : Front: L C R, Side: L R, LFE
Sampling rate                  : 48.0 KHz
Bit depth                      : 16 bits
Compression mode               : Lossy
Stream size                    : 187 MiB (13%)
Alignment                      : Aligned on interleaves
Interleave, duration           : 64 ms (1.92 video frames)
Interleave, preload duration   : 192 ms

Ripper : Unknown

Seeding 24x7... Extreme Seeding...


Enjoy!